<svg width="172" height="65" viewBox="0 0 172 65" fill="none" xmlns="http://www.w3.org/2000/svg">
<path d="M58.1631 35.0033V32.4533H62.2131V16.5533H58.1631V14.0033H69.1132V16.5533H65.0932V32.4533H69.1132V35.0033H58.1631ZM81.3757 35.3633C80.6757 35.3633 80.0457 35.1833 79.4857 34.8233C78.9457 34.4433 78.5157 33.8333 78.1956 32.9933L71.3256 14.0033H74.4757L80.5656 31.8233C80.6657 32.0833 80.7757 32.2933 80.8957 32.4533C81.0157 32.6133 81.1757 32.6933 81.3757 32.6933C81.5957 32.6933 81.7657 32.6133 81.8856 32.4533C82.0057 32.2933 82.1157 32.0833 82.2157 31.8233L88.4257 14.0033H91.4557L84.5857 32.9933C84.2857 33.8133 83.8557 34.4133 83.2957 34.7933C82.7557 35.1733 82.1157 35.3633 81.3757 35.3633ZM104.29 35.3933C102.63 35.3933 101.13 35.1133 99.7898 34.5533C98.4498 33.9933 97.2998 33.2133 96.3398 32.2133C95.3798 31.2133 94.6398 30.0533 94.1198 28.7333C93.6198 27.4133 93.3698 25.9933 93.3698 24.4733C93.3698 22.9733 93.6198 21.5733 94.1198 20.2733C94.6398 18.9533 95.3798 17.7933 96.3398 16.7933C97.2998 15.7933 98.4498 15.0133 99.7898 14.4533C101.13 13.8933 102.63 13.6133 104.29 13.6133C105.95 13.6133 107.45 13.8933 108.79 14.4533C110.13 15.0133 111.27 15.7933 112.21 16.7933C113.17 17.7933 113.91 18.9533 114.43 20.2733C114.95 21.5733 115.21 22.9733 115.21 24.4733C115.21 25.9933 114.95 27.4133 114.43 28.7333C113.91 30.0533 113.17 31.2133 112.21 32.2133C111.27 33.2133 110.13 33.9933 108.79 34.5533C107.45 35.1133 105.95 35.3933 104.29 35.3933ZM104.29 32.8433C105.83 32.8433 107.2 32.4833 108.4 31.7633C109.62 31.0233 110.58 30.0233 111.28 28.7633C111.98 27.5033 112.33 26.0733 112.33 24.4733C112.33 22.8933 111.98 21.4833 111.28 20.2433C110.58 18.9833 109.62 17.9933 108.4 17.2733C107.2 16.5333 105.83 16.1633 104.29 16.1633C102.75 16.1633 101.37 16.5333 100.15 17.2733C98.9298 17.9933 97.9698 18.9833 97.2698 20.2433C96.5898 21.4833 96.2498 22.8933 96.2498 24.4733C96.2498 26.0733 96.5898 27.5033 97.2698 28.7633C97.9698 30.0233 98.9298 31.0233 100.15 31.7633C101.37 32.4833 102.75 32.8433 104.29 32.8433Z" fill="url(#paint0_linear)"/>
<path d="M40.6262 10.2543C39.5391 10.2557 38.4967 10.7312 37.7281 11.5766C36.9594 12.4219 36.5269 13.5681 36.5259 14.7636V25.9953C36.5374 26.7991 36.4035 27.5972 36.1318 28.3434C35.86 29.0896 35.4561 29.7688 34.9433 30.3417C34.4304 30.9146 33.8191 31.3696 33.1449 31.6801C32.4707 31.9906 31.747 32.1505 31.016 32.1505C30.285 32.1505 29.5614 31.9906 28.8871 31.6801C28.2129 31.3696 27.6016 30.9146 27.0888 30.3417C26.576 29.7688 26.172 29.0896 25.9003 28.3434C25.6286 27.5972 25.4946 26.7991 25.5061 25.9953V14.7636C25.5061 13.5678 25.0741 12.4209 24.3051 11.5754C23.5362 10.7298 22.4932 10.2548 21.4057 10.2548C20.3182 10.2548 19.2753 10.7298 18.5063 11.5754C17.7373 12.4209 17.3053 13.5678 17.3053 14.7636V27.1846C17.3053 29.1644 17.6599 31.1249 18.349 32.9541C19.038 34.7832 20.0479 36.4452 21.3211 37.8453C22.5942 39.2452 24.1057 40.3557 25.7691 41.1134C27.4326 41.8709 29.2155 42.2609 31.016 42.2609C32.8165 42.2609 34.5994 41.8709 36.2629 41.1134C37.9264 40.3557 39.4378 39.2452 40.7109 37.8453C41.9841 36.4452 42.9941 34.7832 43.683 32.9541C44.3721 31.1249 44.7267 29.1644 44.7267 27.1846V14.7636C44.7255 13.5681 44.2933 12.4219 43.5245 11.5766C42.7558 10.7312 41.7134 10.2557 40.6262 10.2543ZM42.9328 27.1836C42.9328 30.659 41.6772 33.9919 39.4424 36.4493C37.2076 38.9067 34.1765 40.2874 31.016 40.2874C27.8555 40.2874 24.8244 38.9067 22.5896 36.4493C20.3548 33.9919 19.0992 30.659 19.0992 27.1836V14.7636C19.1045 14.0948 19.3498 13.4553 19.7818 12.9843C20.2138 12.5134 20.7974 12.2492 21.4057 12.2492C22.014 12.2492 22.5977 12.5134 23.0296 12.9843C23.4616 13.4553 23.7069 14.0948 23.7122 14.7636V25.9953C23.7122 28.1254 24.4817 30.1682 25.8514 31.6744C27.2211 33.1806 29.0789 34.0267 31.016 34.0267C32.9531 34.0267 34.8109 33.1806 36.1807 31.6744C37.5503 30.1682 38.3199 28.1254 38.3199 25.9953V14.7636C38.3199 14.091 38.5628 13.4459 38.9954 12.9702C39.428 12.4946 40.0146 12.2274 40.6262 12.2274C41.2381 12.2274 41.8247 12.4946 42.2573 12.9702C42.6897 13.4459 42.9328 14.091 42.9328 14.7636V27.1836Z" fill="url(#paint1_linear)"/>
<path d="M30.1191 12.5532V25.5563C30.1191 25.8179 30.2136 26.0688 30.3818 26.2538C30.55 26.4388 30.7781 26.5426 31.016 26.5426C31.2539 26.5426 31.4821 26.4388 31.6503 26.2538C31.8185 26.0688 31.913 25.8179 31.913 25.5563V12.5532C33.0711 12.3078 34.1044 11.5966 34.8113 10.5585C35.5181 9.52028 35.8477 8.22971 35.7356 6.9387C35.6235 5.6477 35.0779 4.449 34.2052 3.57663C33.3325 2.70426 32.1954 2.22089 31.016 2.22089C29.8366 2.22089 28.6996 2.70426 27.8269 3.57663C26.9542 4.449 26.4086 5.6477 26.2965 6.9387C26.1844 8.22971 26.514 9.52028 27.2208 10.5585C27.9276 11.5966 28.961 12.3078 30.1191 12.5532ZM31.016 4.19564C31.5989 4.19564 32.1687 4.38571 32.6534 4.74182C33.1381 5.09793 33.5159 5.60407 33.7389 6.19626C33.962 6.78844 34.0203 7.44007 33.9066 8.06873C33.7929 8.69738 33.5121 9.27483 33.1 9.72806C32.6878 10.1813 32.1626 10.4899 31.5909 10.6149C31.0192 10.74 30.4266 10.6758 29.8881 10.4304C29.3495 10.1851 28.8892 9.76972 28.5654 9.23675C28.2416 8.70378 28.0688 8.0772 28.0688 7.43622C28.0697 6.57704 28.3805 5.75333 28.933 5.14582C29.4856 4.53831 30.2347 4.19658 31.016 4.19564Z" fill="url(#paint2_linear)"/>
<defs>
<linearGradient id="paint0_linear" x1="63.0953" y1="0.00332908" x2="142.831" y2="45.6685" gradientUnits="userSpaceOnUse">
<stop stop-color="white" stop-opacity="0.69"/>
<stop offset="1" stop-color="#DEDDFF" stop-opacity="0.7"/>
</linearGradient>
<linearGradient id="paint1_linear" x1="17.3053" y1="26.2577" x2="44.7267" y2="26.2577" gradientUnits="userSpaceOnUse">
<stop stop-color="#EC441E"/>
<stop offset="1" stop-color="#EE2A4A"/>
</linearGradient>
<linearGradient id="paint2_linear" x1="26.275" y1="14.3817" x2="35.757" y2="14.3817" gradientUnits="userSpaceOnUse">
<stop stop-color="#EC441E"/>
<stop offset="1" stop-color="#EE2A4A"/>
</linearGradient>
</defs>
</svg>
